<svg width="36" height="37" viewBox="0 0 36 37" fill="none" xmlns="http://www.w3.org/2000/svg">
<path d="M3.33692 6.70748L3.33693 6.70224L3.34097 3.48566C3.34199 2.67202 3.99957 2.02215 4.79587 2.02541L4.80147 2.02542L32.9608 1.9828C33.7725 1.98178 34.4176 2.63467 34.4124 3.42901L34.4124 3.43436L34.377 31.6012C34.376 32.4148 33.7184 33.0647 32.9221 33.0614L32.9167 33.0614L29.7002 33.0655C28.8884 33.0665 28.2306 32.3955 28.2484 31.5777C28.2484 31.5775 28.2484 31.5772 28.2484 31.577L28.6827 14.5332L28.7465 12.0301L26.9759 13.8006L6.12891 34.6476C5.55302 35.2235 4.63585 35.2221 4.06573 34.652L1.75039 32.3367C1.18027 31.7665 1.17887 30.8494 1.75476 30.2735L22.6018 9.42649L24.3723 7.65593L21.8692 7.71971L4.82223 8.15406L4.82028 8.15411C3.9988 8.17665 3.33161 7.52255 3.33692 6.70748Z" stroke="black" stroke-width="2"/>
</svg>
