<svg width="108" height="105" viewBox="0 0 108 105" fill="none" xmlns="http://www.w3.org/2000/svg">
<path d="M47.4783 8.70643L47.4839 8.70091L52.7894 3.44094C54.4543 1.79033 57.1399 1.79846 58.7733 3.4353L58.7793 3.44121L105.238 49.4775C106.896 51.121 106.888 53.7612 105.244 55.3735L105.238 55.3791L58.779 101.439C57.1141 103.09 54.4286 103.082 52.7951 101.445L52.7894 101.439L47.4839 96.1794C45.8179 94.5277 45.8483 91.8303 47.5555 90.2062C47.556 90.2058 47.5564 90.2054 47.5568 90.2049L76.3515 63.008L79.0942 60.4176H75.3216L6.63613 60.4176C4.27377 60.4176 2.40039 58.5417 2.40039 56.2311L2.40039 48.6492C2.40039 46.3385 4.27377 44.4627 6.63613 44.4627L75.3216 44.4627H79.0942L76.3515 41.8722L47.5534 14.6721L47.5512 14.6701C45.8261 13.047 45.7956 10.3572 47.4783 8.70643Z" stroke="black" stroke-width="3"/>
</svg>
